<svg width="400" height="403" viewBox="0 0 400 403" fill="none" xmlns="http://www.w3.org/2000/svg">
<circle cx="200" cy="203" r="177.5" stroke="#A4A3A3" stroke-width="45"/>
<path d="M196 2.67034L181.5 3.99938L167.5 5.49938L155 7.99938L141.5 12L131 15.5L120.5 19.5L110 24.5L97.5 31.5L88.1633 37L80.4249 43.1347L73.7127 48.5671L67.0004 53.9995L55.5004 64.9995L42.5004 79.2285L31.5004 95.4853L20.5009 115L64 128.5L71 117.5L80.4249 105.5L88.1633 95.4853L97.5 87.5L106 80.5L116 72.5L127 67L140.262 60.4263L152 55.5L164.82 51.6298L174.5 49.4994L185 47.9994L193 47.9994L202 47.9994L210.999 2.67085L205.5 2.67034L196 2.67034Z" fill="#141313"/>
</svg>
