<svg width="85" height="42" viewBox="0 0 85 42" fill="none" xmlns="http://www.w3.org/2000/svg">
<path d="M1 0.5H0.5V1V40.2727V40.7727H1H11.4318H11.9318V40.2727V19.296L20.0168 40.1467L20.1406 40.4659H20.483H26.7727H27.1143L27.2385 40.1477L35.3239 19.4378V40.2727V40.7727H35.8239H46.2557H46.7557V40.2727V1V0.5H46.2557H32.9858H32.6505L32.5232 0.810187L23.6278 22.488L14.7325 0.810187L14.6052 0.5H14.2699H1Z" fill="#F9F8F8"/>
<path d="M1 0.5H0.5V1V40.2727V40.7727H1H11.4318H11.9318V40.2727V19.296L20.0168 40.1467L20.1406 40.4659H20.483H26.7727H27.1143L27.2385 40.1477L35.3239 19.4378V40.2727V40.7727H35.8239H46.2557H46.7557V40.2727V1V0.5H46.2557H32.9858H32.6505L32.5232 0.810187L23.6278 22.488L14.7325 0.810187L14.6052 0.5H14.2699H1Z" fill="#FAFAFA"/>
<path d="M1 0.5H0.5V1V40.2727V40.7727H1H11.4318H11.9318V40.2727V19.296L20.0168 40.1467L20.1406 40.4659H20.483H26.7727H27.1143L27.2385 40.1477L35.3239 19.4378V40.2727V40.7727H35.8239H46.2557H46.7557V40.2727V1V0.5H46.2557H32.9858H32.6505L32.5232 0.810187L23.6278 22.488L14.7325 0.810187L14.6052 0.5H14.2699H1Z" stroke="#FDFBFB"/>
<path d="M13.3864 22.7358V17.5455H34.8778V22.7358H27.4403V41.2727H20.8239V22.7358H13.3864Z" fill="#F40808"/>
<path d="M40.7065 41.2727H33.4622L41.6241 17.5455H50.8002L58.9622 41.2727H51.7179L46.3088 24.0797H46.1156L40.7065 41.2727ZM39.3542 31.9116H52.9735V36.7312H39.3542V31.9116Z" fill="#F40808"/>
<path d="M68.5398 17.5455L72.5966 24.4505H72.7898L76.8949 17.5455H84.3807L76.9915 29.4091L84.6704 41.2727H76.9915L72.7898 34.2287H72.5966L68.3949 41.2727H60.7642L68.3466 29.4091L61.0057 17.5455H68.5398Z" fill="#F40808"/>
<path d="M50.3807 17V7.18182H51.8892V17H50.3807ZM51.1477 5.54545C50.8537 5.54545 50.6001 5.44531 50.3871 5.24503C50.1783 5.04474 50.0739 4.80398 50.0739 4.52273C50.0739 4.24148 50.1783 4.00071 50.3871 3.80043C50.6001 3.60014 50.8537 3.5 51.1477 3.5C51.4418 3.5 51.6932 3.60014 51.902 3.80043C52.1151 4.00071 52.2216 4.24148 52.2216 4.52273C52.2216 4.80398 52.1151 5.04474 51.902 5.24503C51.6932 5.44531 51.4418 5.54545 51.1477 5.54545ZM56.1607 11.0938V17H54.6522V7.18182H56.1096V8.71591H56.2374C56.4675 8.21733 56.8169 7.81676 57.2857 7.5142C57.7544 7.20739 58.3596 7.05398 59.101 7.05398C59.7658 7.05398 60.3475 7.19034 60.8461 7.46307C61.3446 7.73153 61.7324 8.14062 62.0094 8.69034C62.2864 9.2358 62.4249 9.92614 62.4249 10.7614V17H60.9164V10.8636C60.9164 10.0923 60.7161 9.49148 60.3155 9.06108C59.915 8.62642 59.3652 8.40909 58.6664 8.40909C58.1848 8.40909 57.7544 8.51349 57.3752 8.7223C57.0002 8.93111 56.704 9.2358 56.4867 9.63636C56.2694 10.0369 56.1607 10.5227 56.1607 11.0938Z" fill="#FDFDFD"/>
</svg>
